HIERARCHY
ROOT joint_Root
{
	OFFSET 0.0 0.0 0.0
	CHANNELS 6 Xposition Yposition Zposition Zrotation Xrotation Yrotation 
	JOINT Hips
	{
		OFFSET -0.726466 93.3139 -2.00062
		CHANNELS 6 Xposition Yposition Zposition Zrotation Xrotation Yrotation 
		JOINT Spine
		{
			OFFSET 15.7357 0.0 0.0
			CHANNELS 6 Xposition Yposition Zposition Zrotation Xrotation Yrotation 
			JOINT Chest
			{
				OFFSET 8.98455 -0.406207 0.0
				CHANNELS 6 Xposition Yposition Zposition Zrotation Xrotation Yrotation 
				JOINT Neck
				{
					OFFSET 16.3773 0.0 0.0
					CHANNELS 6 Xposition Yposition Zposition Zrotation Xrotation Yrotation 
					JOINT Head
					{
						OFFSET 6.45672 0.0 0.0
						CHANNELS 6 Xposition Yposition Zposition Zrotation Xrotation Yrotation 
						End Site
						{
							OFFSET 0.0 0.0 0.0
						}
					}
				}
				JOINT Shoulder_L
				{
					OFFSET 12.9942 -0.242716 4.98039
					CHANNELS 6 Xposition Yposition Zposition Zrotation Xrotation Yrotation 
					JOINT UpperArm_L
					{
						OFFSET 5.34809 0.0 0.0
						CHANNELS 6 Xposition Yposition Zposition Zrotation Xrotation Yrotation 
						JOINT LowerArm_L
						{
							OFFSET 24.3286 1.87007e-05 0.0
							CHANNELS 6 Xposition Yposition Zposition Zrotation Xrotation Yrotation 
							JOINT Hand_L
							{
								OFFSET 22.2916 0.0 0.0
								CHANNELS 6 Xposition Yposition Zposition Zrotation Xrotation Yrotation 
								End Site
								{
									OFFSET 0.0 0.0 0.0
								}
							}
						}
					}
				}
				JOINT Shoulder_R
				{
					OFFSET 12.9945 -0.242716 -4.98039
					CHANNELS 6 Xposition Yposition Zposition Zrotation Xrotation Yrotation 
					JOINT UpperArm_R
					{
						OFFSET -5.34813 0.0 0.0
						CHANNELS 6 Xposition Yposition Zposition Zrotation Xrotation Yrotation 
						JOINT LowerArm_R
						{
							OFFSET -24.3289 0.000322201 0.0
							CHANNELS 6 Xposition Yposition Zposition Zrotation Xrotation Yrotation 
							JOINT Hand_R
							{
								OFFSET -22.2915 -0.000108084 0.0
								CHANNELS 6 Xposition Yposition Zposition Zrotation Xrotation Yrotation 
								End Site
								{
									OFFSET 0.0 0.0 0.0
								}
							}
						}
					}
				}
			}
		}
		JOINT UpperLeg_L
		{
			OFFSET -2.19248 -6.46944 0.0
			CHANNELS 6 Xposition Yposition Zposition Zrotation Xrotation Yrotation 
			JOINT LowerLeg_L
			{
				OFFSET 39.0811 0.0 -1.23785e-05
				CHANNELS 6 Xposition Yposition Zposition Zrotation Xrotation Yrotation 
				JOINT Foot_L
				{
					OFFSET 40.9854 0.0 -1.26872e-05
					CHANNELS 6 Xposition Yposition Zposition Zrotation Xrotation Yrotation 
					JOINT Toes_L
					{
						OFFSET 11.7543 0.0 0.0
						CHANNELS 6 Xposition Yposition Zposition Zrotation Xrotation Yrotation 
						End Site
						{
							OFFSET 0.0 0.0 0.0
						}
					}
				}
			}
		}
		JOINT UpperLeg_R
		{
			OFFSET -2.19251 6.46944 0.0
			CHANNELS 6 Xposition Yposition Zposition Zrotation Xrotation Yrotation 
			JOINT LowerLeg_R
			{
				OFFSET -39.0811 -0.00228153 -0.0401928
				CHANNELS 6 Xposition Yposition Zposition Zrotation Xrotation Yrotation 
				JOINT Foot_R
				{
					OFFSET -40.9854 0.0 0.0
					CHANNELS 6 Xposition Yposition Zposition Zrotation Xrotation Yrotation 
					JOINT Toes_R
					{
						OFFSET -11.7543 0.0 0.0
						CHANNELS 6 Xposition Yposition Zposition Zrotation Xrotation Yrotation 
						End Site
						{
							OFFSET 0.0 0.0 0.0
						}
					}
				}
			}
		}
	}
}
MOTION
Frames:	6
Frame Time:	0.0333333
0.000000 0.000000 0.000000 0.000000 0.000000 -0.000000 -0.137857 92.527400 -0.978486 87.714100 -1.159190 3.244660 15.735700 0.000005 -0.000001 88.996200 86.644600 -89.282600 8.984550 -0.406207 -0.000000 -1.056360 -0.095502 -0.573351 16.377300 -0.000001 -0.000001 2.168110 -2.531630 1.977300 6.456720 -0.000001 -0.000000 4.079660 -3.433980 -2.441020 12.994200 -0.242716 4.980390 -89.538600 -1.330580 -70.873400 5.348090 -0.000007 -0.000001 -71.360800 34.747600 -9.789790 24.328600 0.000019 0.000005 1.789730 4.437180 -21.992400 22.291600 -0.000001 0.000005 5.982870 5.473320 -5.494730 12.994500 -0.242716 -4.980390 90.634100 -1.640040 -68.857100 -5.348130 -0.000001 -0.000004 -77.625400 -35.859300 -100.623000 -24.328900 0.000322 -0.000009 18.711400 0.786308 -87.680800 -22.291500 -0.000108 -0.000004 20.669700 5.271180 0.866351 -2.192480 -6.469440 -0.000000 -175.477000 -7.498690 -3.077430 39.081100 -0.000007 -0.000012 -0.095257 0.238402 21.779900 40.985400 -0.000006 -0.000013 0.247894 4.264920 -65.663900 11.754300 -0.000000 0.000003 -0.000044 -0.000505 -16.597200 -2.192510 6.469440 -0.000001 -179.561000 13.784500 179.538000 -39.081100 -0.002282 -0.040193 0.009290 -0.018425 17.939700 -40.985400 0.000008 0.000006 4.941590 7.650640 -65.013000 -11.754300 -0.000006 -0.000006 -0.009079 -0.096621 -20.508700
0.000000 0.000000 0.000000 0.000000 0.000000 -0.000000 -0.085530 92.526800 -0.969359 87.738000 -1.060850 3.251850 15.735700 0.000005 -0.000001 89.009300 86.625200 -89.260200 8.984550 -0.406207 -0.000000 -1.017520 -0.097454 -0.502507 16.377300 -0.000001 -0.000001 2.192010 -2.551340 2.027660 6.456720 -0.000001 -0.000000 4.078370 -3.452140 -2.443140 12.994200 -0.242716 4.980390 -89.535300 -1.341600 -70.893700 5.348090 -0.000007 -0.000001 -71.291300 34.708000 -9.886670 24.328600 0.000019 0.000005 1.899670 4.720150 -21.952100 22.291600 -0.000001 0.000005 6.101450 5.475930 -5.593520 12.994500 -0.242716 -4.980390 90.644500 -1.659920 -68.776300 -5.348130 -0.000001 -0.000004 -77.406800 -36.014100 -100.575000 -24.328900 0.000322 -0.000009 18.546800 0.804613 -87.604200 -22.291500 -0.000108 -0.000004 20.716100 5.270260 0.890880 -2.192480 -6.469440 -0.000000 -175.527000 -7.588930 -3.078530 39.081100 -0.000007 -0.000012 -0.092999 0.232777 21.777800 40.985400 -0.000006 -0.000013 0.325273 4.433810 -65.664600 11.754300 -0.000000 0.000003 -0.000036 -0.000424 -16.594100 -2.192510 6.469440 -0.000001 -179.622000 13.838500 179.545000 -39.081100 -0.002282 -0.040193 0.009516 -0.019097 17.961400 -40.985400 0.000008 0.000006 4.916320 7.588720 -65.026200 -11.754300 -0.000006 -0.000006 -0.009148 -0.097155 -20.530600
0.000000 0.000000 0.000000 0.000000 0.000000 -0.000000 -0.030613 92.526100 -0.982688 87.755200 -0.953292 3.258080 15.735700 0.000005 -0.000001 88.790100 86.614900 -89.007800 8.984550 -0.406207 -0.000000 -0.997547 -0.126281 -0.436325 16.377300 -0.000001 -0.000001 2.233450 -2.612210 2.061320 6.456720 -0.000001 -0.000000 4.066120 -3.502590 -2.377580 12.994200 -0.242716 4.980390 -89.530900 -1.353630 -70.884500 5.348090 -0.000007 -0.000001 -71.246500 34.661700 -9.931520 24.328600 0.000019 0.000005 1.797050 4.472650 -21.915800 22.291600 -0.000001 0.000005 6.035980 5.474280 -5.530900 12.994500 -0.242716 -4.980390 90.661100 -1.700940 -68.755900 -5.348130 -0.000001 -0.000004 -76.985500 -36.229500 -100.071000 -24.328900 0.000322 -0.000009 18.264000 0.728171 -87.795800 -22.291500 -0.000108 -0.000004 20.660300 5.273220 0.810824 -2.192480 -6.469440 -0.000000 -175.582000 -7.539860 -3.110010 39.081100 -0.000007 -0.000012 -0.094185 0.235545 21.794500 40.985400 -0.000006 -0.000013 0.369222 4.463270 -65.655900 11.754300 -0.000000 0.000003 -0.000044 -0.000502 -16.597100 -2.192510 6.469440 -0.000001 -179.682000 13.882900 179.542000 -39.081100 -0.002282 -0.040193 0.008641 -0.016383 17.976300 -40.985400 0.000008 0.000006 4.822830 7.547740 -65.013200 -11.754300 -0.000006 -0.000006 -0.009094 -0.096740 -20.513600
0.000000 0.000000 0.000000 0.000000 0.000000 -0.000000 0.011440 92.526800 -0.980741 87.762400 -0.902911 3.306220 15.735700 0.000005 -0.000001 89.053500 86.582100 -89.232500 8.984550 -0.406207 -0.000000 -0.931280 -0.099318 -0.358669 16.377300 -0.000001 -0.000001 2.222240 -2.690770 2.117680 6.456720 -0.000001 -0.000000 4.062720 -3.606470 -2.372750 12.994200 -0.242716 4.980390 -89.549400 -1.301460 -70.900500 5.348090 -0.000007 -0.000001 -71.135800 34.637800 -9.996100 24.328600 0.000019 0.000005 1.897610 4.729740 -21.890300 22.291600 -0.000001 0.000005 6.195320 5.476660 -5.621120 12.994500 -0.242716 -4.980390 90.644700 -1.656300 -68.728700 -5.348130 -0.000001 -0.000004 -75.937400 -36.579600 -98.841300 -24.328900 0.000322 -0.000009 18.080200 0.545371 -88.331000 -22.291500 -0.000108 -0.000004 20.792200 5.269560 0.909688 -2.192480 -6.469440 -0.000000 -175.639000 -7.342520 -3.058830 39.081100 -0.000007 -0.000012 -0.092157 0.230588 21.784500 40.985400 -0.000006 -0.000013 0.381760 4.348670 -65.659800 11.754300 -0.000000 0.000003 -0.000046 -0.000524 -16.597900 -2.192510 6.469440 -0.000001 -179.714000 13.892900 179.580000 -39.081100 -0.002282 -0.040193 0.010516 -0.022140 17.994500 -40.985400 0.000008 0.000006 4.867490 7.479070 -65.023700 -11.754300 -0.000006 -0.000006 -0.009047 -0.096375 -20.498700
0.000000 0.000000 0.000000 0.000000 0.000000 -0.000000 0.049697 92.522000 -0.994754 87.749100 -0.884545 3.377170 15.735700 0.000005 -0.000001 89.260800 86.540900 -89.396000 8.984550 -0.406207 -0.000000 -0.848507 -0.079069 -0.270937 16.377300 -0.000001 -0.000001 2.219540 -2.787970 2.170930 6.456720 -0.000001 -0.000000 3.991670 -3.625130 -2.388530 12.994200 -0.242716 4.980390 -89.564700 -1.254310 -70.858500 5.348090 -0.000007 -0.000001 -71.047000 34.666600 -10.023800 24.328600 0.000019 0.000005 1.835840 4.565930 -21.931000 22.291600 -0.000001 0.000005 6.090950 5.474000 -5.520310 12.994500 -0.242716 -4.980390 90.614300 -1.577180 -68.716600 -5.348130 -0.000001 -0.000004 -74.221500 -36.803400 -96.504800 -24.328900 0.000322 -0.000009 17.265400 0.175077 -89.438500 -22.291500 -0.000108 -0.000004 21.110800 5.266770 0.985116 -2.192480 -6.469440 -0.000000 -175.637000 -7.351640 -3.025550 39.081100 -0.000007 -0.000012 -0.092716 0.231312 21.842300 40.985400 -0.000006 -0.000013 0.410634 4.367250 -65.683000 11.754300 -0.000000 0.000003 -0.000043 -0.000495 -16.596800 -2.192510 6.469440 -0.000001 -179.728000 13.891700 179.623000 -39.081100 -0.002282 -0.040193 0.013196 -0.030303 18.043700 -40.985400 0.000008 0.000006 4.919760 7.446770 -65.049800 -11.754300 -0.000006 -0.000006 -0.009345 -0.098680 -20.592900
0.000000 0.000000 0.000000 0.000000 0.000000 -0.000000 0.096666 92.521000 -1.007380 87.743800 -0.958375 3.409850 15.735700 0.000005 -0.000001 89.309300 86.502700 -89.386000 8.984550 -0.406207 -0.000000 -0.772042 -0.078577 -0.153882 16.377300 -0.000001 -0.000001 2.224060 -2.817040 2.177020 6.456720 -0.000001 -0.000000 3.869180 -3.543440 -2.463990 12.994200 -0.242716 4.980390 -89.598100 -1.152340 -70.769900 5.348090 -0.000007 -0.000001 -70.992300 34.674300 -9.951810 24.328600 0.000019 0.000005 1.876150 4.644510 -22.024700 22.291600 -0.000001 0.000005 6.184560 5.475410 -5.573770 12.994500 -0.242716 -4.980390 90.588900 -1.502320 -68.592100 -5.348130 -0.000001 -0.000004 -71.684500 -36.360500 -92.662000 -24.328900 0.000322 -0.000009 15.575200 -0.388522 -91.396700 -22.291500 -0.000108 -0.000004 21.432600 5.265870 1.009710 -2.192480 -6.469440 -0.000000 -175.690000 -7.231920 -3.012810 39.081100 -0.000007 -0.000012 -0.091525 0.228042 21.868100 40.985400 -0.000006 -0.000013 0.411913 4.165560 -65.690100 11.754300 -0.000000 0.000003 -0.000040 -0.000470 -16.595800 -2.192510 6.469440 -0.000001 -179.762000 13.852600 179.631000 -39.081100 -0.002282 -0.040193 0.013935 -0.032523 18.068600 -40.985400 0.000008 0.000006 4.919400 7.499100 -65.047600 -11.754300 -0.000006 -0.000006 -0.009267 -0.098075 -20.568200
